<?xml version="1.0" encoding="UTF-8"?>
<svg width="46px" height="43px" viewBox="0 0 46 43" version="1.1" xmlns="http://www.w3.org/2000/svg" xmlns:xlink="http://www.w3.org/1999/xlink">
    <!-- Generator: Sketch 52.1 (67048) - http://www.bohemiancoding.com/sketch -->
    <title>Group 18</title>
    <desc>Created with Sketch.</desc>
    <g id="Page-1" stroke="none" stroke-width="1" fill="none" fill-rule="evenodd">
        <g id="Artboard-Copy-7" transform="translate(-413.000000, -234.000000)" fill="#2CBFD1">
            <g id="Group-18" transform="translate(413.000000, 234.000000)">
                <path d="M27.7334719,37.266595 L26.2959719,38.6999283 L19.7035969,38.6999283 L18.2668156,37.266595 L-0.000215625,37.266595 L-0.000215625,39.7140117 L3.29597188,42.9999283 L42.7043156,42.9999283 L45.9997844,39.7140117 L45.9997844,37.266595 L27.7334719,37.266595 Z M26.8910969,40.1339783 L28.3285969,38.6999283 L44.5622844,38.6999283 L44.5622844,39.119895 L42.1084719,41.566595 L3.89181563,41.566595 L1.43728438,39.119895 L1.43728438,38.6999283 L17.6716906,38.6999283 L19.1084719,40.1339783 L26.8910969,40.1339783 Z" id="Fill-1"></path>
                <polygon id="Fill-2" points="40.25 35.8333333 41.6875 35.8333333 41.6875 17.2 40.25 17.2"></polygon>
                <polygon id="Fill-3" points="43.125 15.7666667 37.375 15.7666667 37.375 14.3333333 41.6875 14.3333333 41.6875 11.4666667 4.3125 11.4666667 4.3125 14.3333333 8.625 14.3333333 8.625 15.7666667 2.875 15.7666667 2.875 10.0333333 43.125 10.0333333"></polygon>
                <polygon id="Fill-4" points="4.3125 35.8333333 5.75 35.8333333 5.75 17.2 4.3125 17.2"></polygon>
                <polygon id="Fill-5" points="10.0625 15.7666667 35.9375 15.7666667 35.9375 14.3333333 10.0625 14.3333333"></polygon>
                <polygon id="Fill-6" points="11.5 35.8333333 10.0625 35.8333333 10.0625 18.6333333 8.625 18.6333333 8.625 35.8333333 7.1875 35.8333333 7.1875 17.2 11.5 17.2"></polygon>
                <polygon id="Fill-7" points="33.0625 35.8333333 31.625 35.8333333 31.625 18.6333333 14.375 18.6333333 14.375 35.8333333 12.9375 35.8333333 12.9375 17.2 33.0625 17.2"></polygon>
                <polygon id="Fill-8" points="38.8125 35.8333333 37.375 35.8333333 37.375 18.6333333 35.9375 18.6333333 35.9375 35.8333333 34.5 35.8333333 34.5 17.2 38.8125 17.2"></polygon>
                <polygon id="Fill-9" points="20.674125 -0.000215 5.75 7.44021833 5.75 10.749785 7.1875 10.749785 7.1875 8.32601833 21.013375 1.433835 24.9859063 1.433835 38.8125 8.32601833 38.8125 10.749785 40.25 10.749785 40.25 7.44021833 25.325875 -0.000215"></polygon>
                <polygon id="Fill-10" points="6.46875 8.6 39.53125 8.6 39.53125 7.16666667 6.46875 7.16666667"></polygon>
                <polygon id="Fill-11" points="22.28125 5.73333333 23.71875 5.73333333 23.71875 4.3 22.28125 4.3"></polygon>
                <polygon id="Fill-12" points="25.15625 5.73333333 26.59375 5.73333333 26.59375 4.3 25.15625 4.3"></polygon>
                <polygon id="Fill-13" points="19.40625 5.73333333 20.84375 5.73333333 20.84375 4.3 19.40625 4.3"></polygon>
                <polygon id="Fill-14" points="15.8125 21.5 17.25 21.5 17.25 20.0666667 15.8125 20.0666667"></polygon>
                <polygon id="Fill-15" points="28.75 21.5 30.1875 21.5 30.1875 20.0666667 28.75 20.0666667"></polygon>
                <polygon id="Fill-16" points="15.8125 35.8333333 17.25 35.8333333 17.25 34.4 15.8125 34.4"></polygon>
                <polygon id="Fill-17" points="28.75 35.8333333 30.1875 35.8333333 30.1875 34.4 28.75 34.4"></polygon>
            </g>
        </g>
    </g>
</svg>