<svg xmlns="http://www.w3.org/2000/svg" viewBox="0 0 77.33 81.33">
  <defs>
    <symbol id="chip">
      <path class="c" d="M49.08,53.67H25.67v-26h26V51.08Zm-21.41-2H48.25l1.42-1.42V29.67h-22Z"/><rect class="c" x="29.67" y="31.67" width="2" height="2"/><rect class="c" x="29.67" y="25.67" width="2" height="3"/><rect class="c" x="33.67" y="25.67" width="2" height="3"/><rect class="c" x="37.67" y="25.67" width="2" height="3"/><rect class="c" x="41.67" y="25.67" width="2" height="3"/><rect class="c" x="45.67" y="25.67" width="2" height="3"/><rect class="c" x="29.67" y="52.67" width="2" height="3"/><rect class="c" x="33.67" y="52.67" width="2" height="3"/><rect class="c" x="37.67" y="52.67" width="2" height="3"/><rect class="c" x="41.67" y="52.67" width="2" height="3"/><rect class="c" x="45.67" y="52.67" width="2" height="3"/><rect class="c" x="50.67" y="31.67" width="3" height="2"/><rect class="c" x="50.67" y="35.67" width="3" height="2"/><rect class="c" x="50.67" y="39.67" width="3" height="2"/><rect class="c" x="50.67" y="43.67" width="3" height="2"/><rect class="c" x="50.67" y="47.67" width="3" height="2"/><rect class="c" x="23.67" y="31.67" width="3" height="2"/><rect class="c" x="23.67" y="35.67" width="3" height="2"/><rect class="c" x="23.67" y="39.67" width="3" height="2"/><rect class="c" x="23.67" y="43.67" width="3" height="2"/><rect class="c" x="23.67" y="47.67" width="3" height="2"/><polygon class="c" points="27.67 72.67 25.67 72.67 25.67 69.25 29.67 65.25 29.67 57.67 31.67 57.67 31.67 66.08 27.67 70.08 27.67 72.67"/><rect class="c" x="33.67" y="57.67" width="2" height="7"/><polygon class="c" points="35.67 72.67 33.67 72.67 33.67 66.67 37.67 66.67 37.67 57.67 39.67 57.67 39.67 68.67 35.67 68.67 35.67 72.67"/><polygon class="c" points="57.67 66.67 41.67 66.67 41.67 57.67 43.67 57.67 43.67 64.67 57.67 64.67 57.67 66.67"/><rect class="c" x="45.67" y="61.67" width="2" height="11"/><rect class="c" x="37.67" y="12.67" width="2" height="11"/><polygon class="c" points="47.67 23.67 45.67 23.67 45.67 18.25 47.67 16.25 47.67 8.67 49.67 8.67 49.67 17.08 47.67 19.08 47.67 23.67"/><polygon class="c" points="35.67 23.67 33.67 23.67 33.67 14.67 25.67 14.67 25.67 12.67 35.67 12.67 35.67 23.67"/><rect class="c" x="29.67" y="21.67" width="2" height="2"/><polygon class="c" points="70.67 51.67 64.25 51.67 62.25 49.67 55.67 49.67 55.67 47.67 63.08 47.67 65.08 49.67 70.67 49.67 70.67 51.67"/><polygon class="c" points="70.67 47.67 66.25 47.67 64.25 45.67 59.67 45.67 59.67 43.67 65.08 43.67 67.08 45.67 70.67 45.67 70.67 47.67"/><rect class="c" x="55.67" y="39.67" width="11" height="2"/><polygon class="c" points="65.08 33.67 55.67 33.67 55.67 31.67 64.25 31.67 66.25 29.67 70.67 29.67 70.67 31.67 67.08 31.67 65.08 33.67"/><polygon class="c" points="14.08 51.67 6.67 51.67 6.67 49.67 13.25 49.67 15.25 47.67 21.67 47.67 21.67 49.67 16.08 49.67 14.08 51.67"/><polygon class="c" points="21.67 41.67 11.67 41.67 11.67 21.67 13.67 21.67 13.67 39.67 21.67 39.67 21.67 41.67"/><rect class="c" x="6.67" y="35.67" width="15" height="2"/><rect class="c" x="6.67" y="31.67" width="15" height="2"/><rect class="c" x="68.67" y="39.67" width="2" height="2"/><rect class="c" x="55.67" y="43.67" width="2" height="2"/><rect class="c" x="63.67" y="35.67" width="7" height="2"/><rect class="c" x="55.67" y="16.67" width="2" height="2"/><rect class="c" x="41.67" y="70.67" width="2" height="2"/><rect class="c" x="59.67" y="64.67" width="2" height="2"/><rect class="c" x="37.67" y="70.67" width="2" height="2"/><rect class="c" x="29.67" y="70.67" width="2" height="2"/><rect class="c" x="45.67" y="57.67" width="2" height="2"/><rect class="c" x="21.67" y="55.67" width="2" height="2"/><rect class="c" x="17.67" y="55.67" width="2" height="2"/><rect class="c" x="13.67" y="55.67" width="2" height="2"/><rect class="c" x="17.67" y="59.67" width="2" height="2"/><rect class="c" x="21.67" y="63.67" width="2" height="2"/><rect class="c" x="21.67" y="59.67" width="2" height="2"/><rect class="c" x="19.67" y="43.67" width="2" height="2"/><rect class="c" x="15.67" y="43.67" width="2" height="2"/><rect class="c" x="11.67" y="43.67" width="2" height="2"/><rect class="c" x="11.67" y="17.67" width="2" height="2"/><polygon class="c" points="61.67 37.67 55.67 37.67 55.67 35.67 59.67 35.67 59.67 14.67 43.67 14.67 43.67 23.67 41.67 23.67 41.67 12.67 61.67 12.67 61.67 37.67"/><rect class="c" x="19.67" y="27.67" width="2" height="2"/><rect class="c" x="19.67" y="23.67" width="2" height="2"/><rect class="c" x="37.67" y="8.67" width="2" height="2"/><rect class="c" x="29.67" y="8.67" width="2" height="2"/><rect class="c" x="25.67" y="8.67" width="2" height="2"/><rect class="c" x="41.67" y="8.67" width="2" height="2"/><path class="c" d="M57.67,59.67h-6v-6h6Zm-4-2h2v-2h-2Z"/>
    </symbol>
  </defs>
  <title>chip</title>
    <use id="bg" href="#chip" x="0" y="0"/>
    <use id="clip" href="#chip" x="0" y="0"/>
</svg>